<?xml version="1.0" standalone="no"?>
<!DOCTYPE svg PUBLIC "-//W3C//DTD SVG 20010904//EN"
 "http://www.w3.org/TR/2001/REC-SVG-20010904/DTD/svg10.dtd">
<svg version="1.0" xmlns="http://www.w3.org/2000/svg"
 width="280.000000pt" height="60.000000pt" viewBox="0 0 280.000000 60.000000"
 preserveAspectRatio="xMidYMid meet">
<metadata>
Created by potrace 1.10, written by Peter Selinger 2001-2011
</metadata>
<g transform="translate(0.000000,60.000000) scale(0.100000,-0.100000)"
fill="#000000" stroke="none">
<path d="M227 573 c-20 -20 -4 -31 43 -30 32 1 50 6 50 14 0 8 -10 11 -29 7
-16 -4 -32 -1 -35 5 -8 12 -19 14 -29 4z"/>
<path d="M400 525 c0 -19 5 -35 10 -35 6 0 9 5 8 12 -2 7 3 13 10 14 26 3 26
6 2 14 l-25 7 25 11 25 11 -27 0 c-25 1 -28 -2 -28 -34z"/>
<path d="M500 525 c0 -32 3 -35 28 -34 16 1 20 3 10 6 -12 3 -18 14 -18 34 0
16 -4 29 -10 29 -5 0 -10 -16 -10 -35z"/>
<path d="M612 551 c-8 -4 -12 -19 -10 -32 2 -19 9 -24 33 -24 33 0 45 25 25
50 -14 17 -29 19 -48 6z m38 -16 c13 -16 6 -35 -15 -35 -18 0 -28 17 -21 35 7
19 20 19 36 0z"/>
<path d="M720 526 c0 -36 13 -48 24 -23 5 10 7 10 12 0 10 -23 20 -14 19 20 0
27 -4 32 -27 35 -26 3 -28 1 -28 -32z"/>
<path d="M830 525 c0 -19 5 -35 10 -35 6 0 10 16 10 35 0 19 -4 35 -10 35 -5
0 -10 -16 -10 -35z"/>
<path d="M907 554 c-4 -4 -7 -20 -7 -36 0 -25 4 -28 30 -28 34 0 49 23 33 49
-11 17 -44 26 -56 15z m48 -29 c0 -11 -8 -21 -17 -23 -14 -3 -18 3 -18 23 0
20 4 26 18 23 9 -2 17 -12 17 -23z"/>
<path d="M1027 525 c-10 -21 -12 -35 -6 -35 6 0 13 9 16 20 3 11 9 20 13 20 4
0 10 -9 13 -20 3 -11 10 -20 16 -20 6 0 4 14 -6 35 -9 19 -20 35 -23 35 -3 0
-14 -16 -23 -35z"/>
<path d="M156 515 c-9 -25 4 -45 30 -45 13 0 24 5 24 10 0 14 43 13 58 -2 16
-16 37 4 29 26 -7 17 -37 22 -37 6 0 -5 -11 -10 -25 -10 -16 0 -25 6 -25 15 0
9 -9 15 -24 15 -13 0 -26 -7 -30 -15z"/>
<path d="M110 435 c-30 -36 10 -69 55 -45 21 11 66 11 103 -1 21 -6 40 27 24
43 -10 10 -17 10 -32 0 -27 -17 -85 -15 -100 3 -16 19 -34 19 -50 0z"/>
<path d="M390 439 c0 -4 7 -9 15 -13 12 -4 15 -28 15 -125 0 -104 -2 -121 -17
-130 -14 -8 -7 -10 32 -10 40 0 45 2 28 9 -20 8 -23 17 -23 65 l0 55 38 0 c21
0 43 -5 50 -12 9 -9 12 -4 11 23 0 18 -3 28 -6 22 -3 -8 -23 -13 -49 -13 l-44
0 0 60 0 60 46 0 c33 0 51 -5 60 -17 11 -15 13 -15 14 -3 0 8 -4 20 -8 25 -8
11 -162 14 -162 4z"/>
<path d="M680 438 c0 -5 7 -8 15 -8 13 0 15 -21 15 -129 0 -115 -2 -130 -17
-134 -10 -3 21 -5 69 -6 87 -1 88 -1 103 29 17 34 18 40 6 40 -5 0 -11 -9 -14
-20 -6 -22 -44 -40 -88 -40 l-29 0 0 130 c0 109 2 130 15 130 8 0 15 3 15 8 0
4 -20 7 -45 7 -25 0 -45 -3 -45 -7z"/>
<path d="M1239 430 c-51 -27 -73 -73 -67 -144 6 -67 39 -109 100 -128 76 -23
159 27 158 96 -1 31 -1 31 -15 -9 -8 -22 -15 -41 -15 -42 0 -1 -13 -9 -30 -18
-47 -24 -95 -19 -132 14 -29 25 -32 35 -36 95 -4 64 -3 67 31 101 29 29 42 35
77 35 51 0 78 -14 91 -47 12 -33 22 -24 13 12 -13 52 -107 71 -175 35z"/>
<path d="M1662 430 c-55 -146 -107 -253 -126 -260 -16 -7 -11 -9 24 -9 32 -1
41 2 33 10 -8 8 -6 22 5 50 l15 40 55 -3 c53 -3 55 -4 70 -42 13 -32 13 -39 1
-47 -9 -6 3 -9 36 -8 38 0 45 2 29 9 -12 5 -26 21 -32 37 -6 15 -31 77 -56
138 -40 98 -46 107 -54 85z m34 -100 l21 -60 -49 0 c-27 0 -48 4 -46 8 2 4 12
31 22 60 11 29 22 52 25 52 4 0 15 -27 27 -60z"/>
<path d="M1920 439 c0 -4 7 -9 15 -13 12 -4 15 -28 15 -125 0 -104 -2 -121
-17 -130 -14 -8 -7 -10 32 -10 40 0 45 2 28 9 -22 9 -23 14 -23 135 l0 125 34
0 c44 0 66 -22 66 -65 0 -35 -28 -65 -61 -65 -12 0 -9 -9 15 -37 71 -84 94
-103 123 -103 l28 1 -27 12 c-28 13 -116 117 -98 117 5 0 19 9 30 20 29 29 28
95 -2 114 -24 14 -158 27 -158 15z"/>
<path d="M2270 439 c0 -4 7 -9 15 -13 12 -4 15 -28 15 -125 0 -104 -2 -121
-17 -130 -13 -8 5 -10 68 -11 l87 0 12 30 c16 38 5 53 -11 16 -8 -17 -23 -28
-45 -32 -58 -11 -65 -5 -68 59 l-3 57 43 0 c24 0 44 -5 47 -12 3 -7 5 3 5 22
0 19 -2 29 -5 23 -3 -8 -22 -13 -46 -13 l-42 0 2 58 1 57 42 3 c31 2 45 -1 56
-15 12 -17 13 -16 14 7 0 26 -1 26 -85 25 -47 0 -85 -3 -85 -6z"/>
<path d="M2612 433 c-12 -10 -24 -31 -28 -46 -6 -25 1 -35 55 -88 64 -64 73
-85 43 -112 -36 -33 -85 -18 -94 28 -3 15 -5 17 -9 5 -21 -52 58 -91 109 -53
19 14 28 31 30 56 3 33 -2 42 -52 88 -56 52 -69 82 -44 107 20 20 64 14 76
-10 11 -22 12 -22 9 7 -2 27 -6 30 -38 33 -23 2 -43 -3 -57 -15z"/>
<path d="M142 361 c-8 -5 -12 -21 -10 -37 2 -23 9 -30 31 -32 18 -2 29 2 33
12 7 18 79 23 89 6 9 -15 41 -12 54 4 9 11 10 20 1 35 -12 24 -48 28 -56 6 -4
-9 -19 -15 -41 -15 -19 0 -41 7 -49 15 -17 17 -33 19 -52 6z"/>
<path d="M60 265 c-26 -31 16 -69 51 -47 24 15 72 15 86 1 6 -6 21 -9 34 -7
19 2 24 9 24 33 0 24 -5 31 -24 33 -13 2 -28 -1 -34 -7 -14 -14 -74 -14 -82
-1 -9 15 -41 12 -55 -5z"/>
<path d="M143 193 c-15 -5 -17 -39 -4 -47 4 -3 28 -2 52 2 31 6 50 4 65 -5 30
-19 56 -6 52 26 -2 19 -10 27 -27 29 -13 2 -28 -2 -32 -10 -9 -16 -45 -16 -74
-1 -11 6 -26 8 -32 6z"/>
<path d="M204 105 c-7 -18 -31 -20 -37 -2 -3 9 -7 9 -17 0 -17 -16 -3 -35 21
-28 11 4 26 0 35 -10 19 -18 33 -16 48 7 7 12 6 21 -3 32 -17 20 -40 21 -47 1z"/>
<path d="M570 85 c-25 -31 9 -76 46 -60 17 8 17 9 -6 13 -14 2 -28 9 -32 15
-10 17 12 38 33 32 11 -4 19 -2 19 4 0 16 -46 13 -60 -4z"/>
<path d="M696 64 c-9 -20 -14 -39 -10 -43 4 -3 9 0 11 7 6 15 35 16 51 0 16
-16 15 -5 -2 37 -8 19 -19 35 -24 35 -4 0 -16 -16 -26 -36z"/>
<path d="M886 84 c-12 -12 -13 -20 -6 -35 12 -21 35 -25 45 -8 4 6 0 9 -11 7
-11 -2 -20 4 -22 15 -2 12 3 17 18 17 12 0 18 5 15 10 -9 14 -21 12 -39 -6z"/>
<path d="M977 93 c-3 -5 -4 -19 -3 -33 1 -19 7 -25 26 -27 14 -1 18 0 8 3 -21
6 -24 24 -5 24 8 0 7 4 -3 10 -13 8 -12 10 3 10 9 0 17 5 17 10 0 12 -37 14
-43 3z"/>
<path d="M1069 98 c-1 -2 -2 -15 -3 -31 -2 -22 1 -26 16 -21 11 3 18 0 19 -8
1 -7 4 -2 9 12 5 18 3 29 -8 38 -15 11 -30 16 -33 10z"/>
<path d="M1200 58 c1 -40 2 -42 15 -24 15 20 15 20 29 0 15 -19 15 -19 14 1 0
11 0 25 2 30 6 25 -2 35 -30 35 -29 0 -30 -2 -30 -42z"/>
<path d="M1330 60 c0 -38 2 -40 31 -40 17 0 28 4 24 10 -3 6 -15 10 -26 10
-26 0 -24 18 4 23 l22 4 -22 2 c-32 2 -29 19 5 24 25 4 25 4 -5 6 -32 1 -33 0
-33 -39z"/>
<path d="M1447 93 c-13 -13 -7 -24 21 -35 l27 -11 -30 -7 c-25 -6 -27 -8 -12
-14 9 -5 24 -6 32 -2 22 8 18 37 -5 43 -27 7 -25 21 3 26 20 4 20 4 -4 6 -14
0 -29 -2 -32 -6z"/>
<path d="M1537 93 c-4 -3 -7 -19 -7 -35 0 -23 4 -28 23 -27 16 1 18 2 5 6 -10
2 -18 9 -18 14 0 5 8 9 18 10 14 0 14 2 -3 9 -17 7 -17 9 -2 9 9 1 17 6 17 11
0 11 -23 14 -33 3z"/>
<path d="M1717 93 c-4 -3 -7 -17 -7 -31 0 -18 4 -23 17 -18 9 4 21 1 26 -6 6
-9 7 -8 3 4 -3 10 0 20 6 24 7 5 5 12 -7 21 -21 15 -29 16 -38 6z"/>
<path d="M1815 84 c-18 -19 -16 -33 8 -48 12 -8 20 -7 29 3 11 10 9 12 -7 9
-12 -2 -21 3 -23 15 -2 12 3 17 18 17 12 0 18 5 15 10 -9 14 -21 12 -40 -6z"/>
<path d="M2167 93 c-3 -5 -4 -19 -2 -33 1 -19 8 -25 26 -27 14 -1 17 0 7 3
-10 3 -18 10 -18 15 0 5 8 9 18 10 14 0 14 2 -3 9 -17 7 -17 9 -2 9 9 1 17 6
17 11 0 12 -37 14 -43 3z"/>
<path d="M2250 90 c0 -6 5 -10 11 -10 6 0 9 -9 6 -20 -3 -11 -1 -23 4 -26 5
-3 9 6 9 20 0 14 5 26 12 26 18 0 0 13 -22 17 -11 2 -20 -2 -20 -7z"/>
<path d="M2474 86 c-20 -15 -14 -43 12 -53 20 -8 47 19 39 39 -9 23 -30 29
-51 14z m36 -20 c0 -8 -5 -18 -11 -22 -14 -8 -33 11 -25 25 10 16 36 13 36 -3z"/>
<path d="M2577 93 c-4 -3 -7 -20 -7 -37 0 -23 3 -27 9 -17 8 12 13 12 24 3 12
-10 15 -8 15 15 0 34 -24 54 -41 36z"/>
<path d="M781 59 c1 -24 3 -27 6 -11 l4 22 19 -22 19 -23 0 35 c-1 19 -3 27
-6 17 -5 -18 -6 -18 -24 -1 -18 17 -19 16 -18 -17z"/>
<path d="M1622 65 c-16 -35 -15 -37 8 -23 17 11 22 10 30 -2 13 -19 13 -8 0
24 -12 33 -24 33 -38 1z"/>
<path d="M1900 58 c1 -31 1 -32 15 -14 15 20 15 20 30 0 14 -18 14 -17 15 14
0 17 -4 32 -10 32 -5 0 -10 -4 -10 -10 0 -5 -7 -10 -16 -10 -8 0 -12 5 -9 10
3 6 1 10 -4 10 -6 0 -11 -15 -11 -32z"/>
<path d="M2060 60 c0 -17 4 -29 10 -25 5 3 6 13 3 22 -5 12 -3 14 7 8 8 -5 11
-3 8 5 -9 28 -28 22 -28 -10z"/>
<path d="M2338 73 c5 -10 12 -25 15 -33 3 -11 7 -8 15 10 l10 25 10 -25 10
-25 11 28 c15 38 14 45 -4 21 -13 -17 -14 -17 -15 -1 0 9 -3 17 -6 17 -4 0
-13 -8 -20 -17 -13 -17 -13 -17 -14 0 0 9 -5 17 -10 17 -7 0 -7 -6 -2 -17z"/>
<path d="M2664 65 c3 -31 16 -46 16 -19 1 18 1 18 14 2 7 -10 17 -18 21 -18 4
0 2 7 -5 15 -7 8 -9 22 -6 31 5 14 4 15 -9 4 -10 -8 -15 -9 -15 -1 0 6 -4 11
-9 11 -5 0 -8 -11 -7 -25z"/>
<path d="M156 43 c-4 -5 -16 -8 -27 -8 -36 0 -19 -19 18 -19 27 -1 38 3 38 13
0 17 -18 25 -29 14z"/>
</g>
</svg>
